<?xml version="1.0" standalone="no"?>
<!DOCTYPE svg PUBLIC "-//W3C//DTD SVG 20010904//EN"
 "http://www.w3.org/TR/2001/REC-SVG-20010904/DTD/svg10.dtd">
<svg version="1.0" xmlns="http://www.w3.org/2000/svg"
 width="1243.740989pt" height="462.682557pt" viewBox="0 0 1243.740989 462.682557"
 preserveAspectRatio="xMidYMid meet">
<metadata>
Created by potrace 1.16, written by Peter Selinger 2001-2019
</metadata>
<g transform="translate(-148.006986,822.945310) scale(0.100000,-0.100000)"
fill="#000000" stroke="none">
<path d="M12494 8201 c-174 -61 -379 -196 -539 -356 -105 -106 -138 -176 -194
-415 -9 -40 -10 -36 -5 36 3 45 12 106 19 135 21 76 20 77 -27 24 -214 -241
-288 -432 -288 -744 0 -87 -4 -140 -9 -131 -20 35 -43 216 -37 293 4 42 4 77
1 77 -7 0 -152 -292 -175 -353 -66 -176 -75 -308 -35 -532 13 -76 23 -141 21
-142 -2 -2 -17 32 -34 75 -27 68 -40 115 -68 237 l-6 30 -13 -37 c-8 -20 -30
-103 -51 -185 -33 -129 -38 -162 -38 -263 0 -107 3 -123 37 -220 20 -57 37
-107 37 -110 0 -10 -58 83 -76 122 l-18 41 -8 -28 c-15 -57 11 -226 58 -386
42 -143 59 -257 42 -274 -4 -4 -37 -14 -75 -21 -154 -33 -215 -86 -180 -159
33 -70 133 -93 492 -115 217 -12 519 18 612 61 84 40 91 124 15 167 -80 44
-334 76 -576 70 -165 -3 -154 -10 -116 79 32 74 80 135 210 268 70 72 147 159
172 195 41 57 138 236 138 254 0 3 -27 -16 -61 -43 -33 -27 -86 -63 -117 -80
-31 -17 -81 -44 -109 -61 -29 -17 -53 -28 -53 -26 0 3 48 43 108 89 146 115
262 237 300 318 28 58 99 292 116 378 6 33 6 33 -66 -35 -62 -59 -314 -231
-324 -221 -2 1 65 61 147 132 153 131 250 239 293 324 13 25 49 134 80 241 31
107 59 204 63 215 4 13 -13 3 -48 -31 -65 -61 -152 -120 -239 -164 -36 -18
-63 -30 -60 -27 3 2 39 31 80 64 167 132 293 281 331 390 26 75 25 77 -18 50
-21 -13 -45 -27 -53 -31 -22 -11 40 42 72 62 31 18 39 39 93 247 62 235 123
365 232 493 24 28 41 52 36 51 -4 0 -44 -13 -89 -28z m-387 -482 c-346 -522
-640 -1292 -861 -2252 -16 -68 -58 -309 -70 -397 l-6 -45 215 3 c154 2 245 -2
317 -12 55 -9 103 -18 106 -20 14 -15 -252 -46 -385 -46 -113 1 -417 31 -429
43 -3 3 11 9 32 13 64 11 69 17 83 101 20 124 78 413 122 608 132 584 404
1301 652 1715 91 152 312 458 324 447 1 -2 -44 -73 -100 -158z m-94 -926 c-28
-32 -80 -80 -116 -108 -63 -48 -187 -122 -187 -111 0 2 51 43 113 89 61 47
139 110 172 140 33 30 62 53 64 51 2 -2 -18 -30 -46 -61z m-973 -1874 c10 -6
2 -8 -25 -9 -47 0 -85 9 -85 20 0 9 90 0 110 -11z"/>
<path d="M9935 5661 c-48 -22 -69 -44 -90 -94 -31 -75 -13 -150 48 -204 42
-37 88 -48 154 -38 94 14 159 118 134 214 -31 117 -139 171 -246 122z"/>
<path d="M2059 5060 c-332 -53 -579 -366 -579 -734 0 -322 180 -576 475 -673
108 -35 278 -43 392 -18 98 21 204 71 277 130 67 55 156 163 149 181 -11 28
-35 21 -90 -27 -249 -218 -625 -186 -826 70 -58 73 -104 166 -121 243 -19 85
-29 200 -21 237 l7 31 518 0 c465 0 518 2 524 16 8 20 -9 128 -28 181 -59 169
-185 291 -354 343 -73 23 -241 33 -323 20z m163 -71 c119 -25 202 -89 252
-192 45 -91 56 -163 29 -195 l-18 -22 -381 2 -381 3 19 75 c45 175 152 286
313 326 65 16 102 17 167 3z"/>
<path d="M3465 5034 c-38 -19 -127 -53 -197 -76 -73 -23 -129 -47 -133 -56
-10 -26 15 -42 67 -42 27 0 64 -6 83 -14 66 -28 65 -22 65 -551 0 -514 -1
-524 -53 -558 -14 -9 -45 -19 -69 -22 -83 -12 -88 -14 -88 -40 l0 -25 337 2
c321 3 338 4 341 22 5 25 -14 36 -63 36 -45 0 -112 28 -137 56 -34 40 -38 92
-38 530 l0 431 55 52 c85 81 235 141 350 141 62 0 163 -24 213 -49 50 -25 117
-100 145 -159 21 -46 22 -58 25 -469 3 -483 4 -480 -70 -513 -24 -11 -59 -20
-78 -20 -44 0 -63 -12 -58 -36 3 -18 18 -19 333 -19 315 0 330 1 333 19 5 25
-14 36 -63 36 -62 1 -118 31 -141 76 -18 36 -19 71 -24 489 -5 436 -6 452 -28
506 -75 189 -224 283 -447 283 -163 0 -307 -58 -457 -183 l-83 -70 -3 116 c-3
112 -11 144 -36 142 -6 0 -42 -16 -81 -35z"/>
<path d="M5595 5063 c-163 -22 -309 -116 -366 -238 -24 -50 -29 -73 -29 -136
0 -103 21 -158 86 -228 65 -70 132 -107 347 -190 253 -98 316 -137 360 -223
63 -124 4 -271 -134 -333 -114 -51 -238 -44 -367 20 -118 59 -194 152 -261
318 -8 21 -17 28 -34 25 -20 -3 -22 -8 -19 -58 6 -136 26 -301 36 -309 17 -14
213 -67 298 -81 111 -18 316 -8 390 18 125 45 214 120 269 229 28 55 34 78 37
151 10 216 -93 317 -473 462 -196 75 -264 110 -304 155 -41 47 -51 74 -51 139
0 113 102 198 255 212 187 17 349 -76 421 -240 29 -67 41 -80 63 -66 10 6 10
38 1 156 -6 82 -14 152 -18 155 -13 13 -178 49 -263 59 -83 10 -185 11 -244 3z"/>
<path d="M7225 5056 c-317 -63 -562 -290 -631 -584 -22 -93 -14 -304 14 -382
79 -223 251 -382 482 -446 91 -26 348 -26 440 -1 102 27 218 89 292 157 82 74
115 124 98 145 -19 22 -27 19 -83 -31 -152 -133 -382 -176 -593 -110 -314 99
-491 446 -400 780 34 123 71 191 143 264 86 87 182 132 295 139 174 11 293
-53 401 -212 22 -33 48 -66 56 -73 27 -21 82 -6 118 32 141 152 -80 318 -442
331 -80 3 -143 0 -190 -9z"/>
<path d="M8630 5038 c-36 -17 -126 -52 -200 -77 -124 -43 -135 -49 -135 -71 0
-23 5 -26 62 -32 34 -4 76 -14 93 -23 61 -31 61 -36 58 -559 -3 -431 -5 -474
-21 -499 -26 -40 -59 -58 -121 -64 -59 -6 -80 -20 -70 -46 5 -14 45 -16 362
-14 l357 2 3 22 c3 19 -3 22 -45 28 -109 14 -124 18 -155 38 -18 12 -42 40
-53 62 -19 38 -20 63 -23 431 -3 381 -3 392 19 449 12 32 40 78 63 103 90 99
205 109 325 30 64 -43 82 -48 117 -33 82 34 112 140 58 205 -45 53 -99 75
-184 74 -59 0 -87 -5 -130 -25 -66 -31 -166 -121 -227 -204 l-43 -59 0 135 c0
132 -6 160 -34 158 -6 0 -40 -14 -76 -31z"/>
<path d="M9995 5035 c-49 -18 -135 -46 -190 -61 -55 -15 -106 -33 -114 -40
-26 -24 -5 -42 57 -49 73 -8 119 -35 138 -80 20 -50 21 -959 0 -1009 -21 -49
-59 -74 -127 -82 -61 -7 -85 -23 -75 -49 5 -13 48 -15 338 -13 l333 3 3 22 c4
24 -2 26 -87 38 -60 8 -97 30 -118 68 -17 29 -18 81 -21 646 -2 426 -6 619
-14 628 -14 17 -17 16 -123 -22z"/>
<path d="M13224 5061 c-209 -34 -403 -179 -502 -376 -58 -115 -73 -179 -79
-325 -6 -166 9 -249 68 -370 57 -115 179 -239 289 -293 124 -60 222 -80 370
-74 105 4 138 9 205 34 106 38 162 71 240 144 72 67 110 122 101 144 -9 26
-36 17 -89 -30 -93 -82 -254 -145 -372 -145 -67 0 -175 28 -253 65 -133 63
-247 199 -303 362 -23 67 -42 221 -33 269 l6 34 517 2 516 3 0 85 c-1 78 -4
92 -39 165 -69 142 -199 248 -356 290 -68 19 -218 27 -286 16z m142 -72 c165
-30 289 -163 301 -324 6 -63 5 -65 -21 -75 -17 -6 -168 -10 -397 -10 -299 0
-369 3 -369 13 0 29 33 125 62 179 58 109 148 179 271 213 65 17 79 18 153 4z"/>
<path d="M10930 4776 c0 -36 -42 -97 -105 -153 -82 -72 -148 -158 -189 -243
-27 -58 -30 -74 -30 -155 2 -149 57 -265 191 -398 l69 -67 109 -11 c144 -15
794 -15 905 0 l85 11 87 90 c67 69 96 108 129 175 42 85 43 89 44 189 0 101 0
103 -44 191 -38 76 -59 104 -145 188 -110 108 -136 141 -136 175 0 25 -16 28
-69 12 -82 -23 -336 -42 -476 -35 -132 6 -337 27 -397 41 -22 5 -28 3 -28 -10z
m30 -195 c-179 -246 -209 -397 -121 -604 22 -52 19 -59 -10 -24 -48 54 -90
131 -105 189 -22 84 -7 173 42 255 32 53 218 252 237 253 4 0 -15 -31 -43 -69z"/>
<path d="M10771 3701 c-22 -22 -18 -57 8 -66 39 -12 284 -26 556 -31 313 -6
692 13 720 36 8 7 15 23 15 36 0 45 -30 49 -247 30 -243 -20 -602 -20 -818 -1
-206 19 -211 19 -234 -4z"/>
</g>
</svg>
